<svg width="35" height="35" viewBox="0 0 35 35" fill="none" xmlns="http://www.w3.org/2000/svg">
<path d="M17.5379 2.91666C10.4022 2.91574 4.31931 8.0908 3.17683 15.1345C2.03435 22.1781 6.16962 29.0106 12.9398 31.2652C13.669 31.3964 13.93 30.9487 13.93 30.5637C13.93 30.2181 13.9183 29.3023 13.914 28.0846C9.86708 28.9596 9.0125 26.1333 9.0125 26.1333C8.74608 25.2539 8.17334 24.499 7.39812 24.0056C6.08562 23.1029 7.49875 23.1233 7.49875 23.1233C8.43307 23.2514 9.25539 23.805 9.72562 24.6225C10.1237 25.3462 10.7942 25.881 11.5884 26.108C12.3825 26.335 13.2344 26.2354 13.9548 25.8315C14.0225 25.0935 14.3508 24.4039 14.8808 23.886C11.6521 23.52 8.25708 22.2717 8.25708 16.6965C8.23916 15.2544 8.77464 13.8604 9.75333 12.8012C9.31051 11.5461 9.36266 10.1693 9.89917 8.95124C9.89917 8.95124 11.1198 8.55895 13.8979 10.4402C16.2806 9.78688 18.7952 9.78688 21.1779 10.4402C23.9575 8.55749 25.1767 8.95124 25.1767 8.95124C25.7157 10.1687 25.7678 11.5465 25.3225 12.8012C26.3048 13.8603 26.8398 15.258 26.8158 16.7023C26.8158 22.2921 23.4179 23.52 20.1775 23.8802C20.8765 24.5949 21.235 25.5753 21.1619 26.5723C21.1619 28.5177 21.1444 30.0869 21.1444 30.5637C21.1444 30.9531 21.404 31.4052 22.1462 31.2623C28.9136 29.0038 33.0444 22.171 31.8996 15.1292C30.7548 8.0874 24.6722 2.91502 17.5379 2.91666Z" fill="white"/>
</svg>
